# xmcd
#
# Track frame offsets:
#	150
#	16689
#	36849
#	58799
#	95982
#	118316
#	140674
#	159787
#	175166
#	192708
#	215808
#	239407
#	242133
#	253586
#	272254
#	280080
#
# Disc length: 3911 seconds
#
# Revision: 0
# Processed by: cddbd v1.4PL0 Copyright (c) Steve Scherf et al.
# Submitted via: EasyCDDAExtractor 4.5.0.1
#
DISCID=ef0f4510
DTITLE=Gillian Welch and David Rawlings - St. Louis Disc#2
DYEAR=1998
DGENRE=
TTITLE0=One Morning
TTITLE1=I'm Not Afraid To Die
TTITLE2=By The Mark
TTITLE3=Billy1
TTITLE4=Annabelle
TTITLE5=Whiskey Girl
TTITLE6=I'm On My Way To The Old Home
TTITLE7=Acony Bell
TTITLE8=Caleb Meyer
TTITLE9=Orphan Girl
TTITLE10=White Freightliner Blues
TTITLE11=talk
TTITLE12=Don't Shoot Me Down
TTITLE13=One More Dollar
TTITLE14=Delia
TTITLE15=Rock of Ages
EXTD=
EXTT0=
EXTT1=
EXTT2=
EXTT3=
EXTT4=
EXTT5=
EXTT6=
EXTT7=
EXTT8=
EXTT9=
EXTT10=
EXTT11=
EXTT12=
EXTT13=
EXTT14=
EXTT15=
PLAYORDER=
